<svg class="diagram-root" style="background: #f5f6f6" xmlns="http://www.w3.org/2000/svg" xmlns:xlink="http://www.w3.org/1999/xlink"><style>.diagram-root { font-family: "Helvetica Neue", sans-serif; font-size: 12px; } .t { overflow: visible; } .t-bg { y: 40; fill: #fff;   } .th { fill: #005aa0;   } .tht { fill: #fff; font-size: 14px;  } .tf { fill: #323c46; overflow: visible; } .tf.pk { fill: #005aa0; font-weight: bold; } .tf.fk { font-weight: bold; } .ty { fill: #adb1b5; font-weight: normal; text-anchor: end; } .r { fill: transparent; stroke: #c3c3c3; stroke-width: 1; } .l { stroke: 1; } .i { fill: #c2c7ce; stroke: #c2c7ce; } .i.ix { fill: #afb3b6; stroke: #000; } .fa { fill: transparent; overflow: visible; } .fa .bg.hover { fill: #f7f7f7; } .c { cy: 12; r: 4; stroke: #d2d2dc; fill: #d2d2dc; } .hr { fill: transparent; stroke: #323c46; stroke-opacity: 0.035; stroke-width: 13; } .dc { stroke: #fa5a3c; fill: #fa5a3c; } .x { stroke: white; stroke-width: 1; } .hl .th { fill: #1b9bff; } .hl .tht {  } .fhl .bg { fill: #e7f4ff; } .fhls .bg {  } .r.hl { stroke: #1b9bff; } .dim { opacity: 0.25; }</style><g class="drawing-wrapper" transform="translate(-139, 27) scale(1,1)"><g class="rs"><path d="M 435 407 m -1, 0 a 1,1 0 1,0 2,0 a 1,1 0 1,0 -2,0 M 435 407 m -0.5, 0 a 0.5,0.5 0 1,0 1,0 a 0.5,0.5 0 1,0 -1,0  M435 407 L435 407 423 407 M 435 413 m -1, 0 a 1,1 0 1,0 2,0 a 1,1 0 1,0 -2,0 M 435 413 m -0.5, 0 a 0.5,0.5 0 1,0 1,0 a 0.5,0.5 0 1,0 -1,0  M435 413 L435 413 428 407 435 401 M 435 401 m -1, 0 a 1,1 0 1,0 2,0 a 1,1 0 1,0 -2,0 M 435 401 m -0.5, 0 a 0.5,0.5 0 1,0 1,0 a 0.5,0.5 0 1,0 -1,0  M423 407 C 373 407, 351.4 60, 459 60 M 471 60 m -1, 0 a 1,1 0 1,0 2,0 a 1,1 0 1,0 -2,0 M 471 60 m -0.5, 0 a 0.5,0.5 0 1,0 1,0 a 0.5,0.5 0 1,0 -1,0  M471 60 L471 60 459 60 M465 66 L465 66 465 54" id="h3234546251" class="r"></path><path d="M 435 432 m -1, 0 a 1,1 0 1,0 2,0 a 1,1 0 1,0 -2,0 M 435 432 m -0.5, 0 a 0.5,0.5 0 1,0 1,0 a 0.5,0.5 0 1,0 -1,0  M435 432 L435 432 423 432 M 435 438 m -1, 0 a 1,1 0 1,0 2,0 a 1,1 0 1,0 -2,0 M 435 438 m -0.5, 0 a 0.5,0.5 0 1,0 1,0 a 0.5,0.5 0 1,0 -1,0  M435 438 L435 438 428 432 435 426 M 435 426 m -1, 0 a 1,1 0 1,0 2,0 a 1,1 0 1,0 -2,0 M 435 426 m -0.5, 0 a 0.5,0.5 0 1,0 1,0 a 0.5,0.5 0 1,0 -1,0  M423 432 Q 397.01 432, 371.02 321 T 319.04 210 M 307.04 210 m -1, 0 a 1,1 0 1,0 2,0 a 1,1 0 1,0 -2,0 M 307.04 210 m -0.5, 0 a 0.5,0.5 0 1,0 1,0 a 0.5,0.5 0 1,0 -1,0  M307.04 210 L307.04 210 319.04 210 M313.04 216 L313.04 216 313.04 204" id="h859907987" class="r"></path><path d="M 435 457 m -1, 0 a 1,1 0 1,0 2,0 a 1,1 0 1,0 -2,0 M 435 457 m -0.5, 0 a 0.5,0.5 0 1,0 1,0 a 0.5,0.5 0 1,0 -1,0  M435 457 L435 457 423 457 M 435 463 m -1, 0 a 1,1 0 1,0 2,0 a 1,1 0 1,0 -2,0 M 435 463 m -0.5, 0 a 0.5,0.5 0 1,0 1,0 a 0.5,0.5 0 1,0 -1,0  M435 463 L435 463 428 457 435 451 M 435 451 m -1, 0 a 1,1 0 1,0 2,0 a 1,1 0 1,0 -2,0 M 435 451 m -0.5, 0 a 0.5,0.5 0 1,0 1,0 a 0.5,0.5 0 1,0 -1,0  M423 457 Q 396.51 457, 370.02 427.5 T 317.04 398 M 305.04 398 m -1, 0 a 1,1 0 1,0 2,0 a 1,1 0 1,0 -2,0 M 305.04 398 m -0.5, 0 a 0.5,0.5 0 1,0 1,0 a 0.5,0.5 0 1,0 -1,0  M305.04 398 L305.04 398 317.04 398 M311.04 404 L311.04 404 311.04 392" id="h3115280129" class="r"></path><path d="M 657.13 482 m -1, 0 a 1,1 0 1,0 2,0 a 1,1 0 1,0 -2,0 M 657.13 482 m -0.5, 0 a 0.5,0.5 0 1,0 1,0 a 0.5,0.5 0 1,0 -1,0  M657.13 482 L657.13 482 669.13 482 M 657.13 488 m -1, 0 a 1,1 0 1,0 2,0 a 1,1 0 1,0 -2,0 M 657.13 488 m -0.5, 0 a 0.5,0.5 0 1,0 1,0 a 0.5,0.5 0 1,0 -1,0  M657.13 488 L657.13 488 664.13 482 657.13 476 M 657.13 476 m -1, 0 a 1,1 0 1,0 2,0 a 1,1 0 1,0 -2,0 M 657.13 476 m -0.5, 0 a 0.5,0.5 0 1,0 1,0 a 0.5,0.5 0 1,0 -1,0  M669.13 482 Q 684.35 482, 699.57 341 T 730 200 M 742 200 m -1, 0 a 1,1 0 1,0 2,0 a 1,1 0 1,0 -2,0 M 742 200 m -0.5, 0 a 0.5,0.5 0 1,0 1,0 a 0.5,0.5 0 1,0 -1,0  M742 200 L742 200 730 200 M736 206 L736 206 736 194" id="h3137490402" class="r"></path><path d="M 657.13 507 m -1, 0 a 1,1 0 1,0 2,0 a 1,1 0 1,0 -2,0 M 657.13 507 m -0.5, 0 a 0.5,0.5 0 1,0 1,0 a 0.5,0.5 0 1,0 -1,0  M657.13 507 L657.13 507 669.13 507 M 657.13 513 m -1, 0 a 1,1 0 1,0 2,0 a 1,1 0 1,0 -2,0 M 657.13 513 m -0.5, 0 a 0.5,0.5 0 1,0 1,0 a 0.5,0.5 0 1,0 -1,0  M657.13 513 L657.13 513 664.13 507 657.13 501 M 657.13 501 m -1, 0 a 1,1 0 1,0 2,0 a 1,1 0 1,0 -2,0 M 657.13 501 m -0.5, 0 a 0.5,0.5 0 1,0 1,0 a 0.5,0.5 0 1,0 -1,0  M669.13 507 Q 684.6 507, 700.07 451 T 731 395 M 743 395 m -1, 0 a 1,1 0 1,0 2,0 a 1,1 0 1,0 -2,0 M 743 395 m -0.5, 0 a 0.5,0.5 0 1,0 1,0 a 0.5,0.5 0 1,0 -1,0  M743 395 L743 395 731 395 M737 401 L737 401 737 389" id="h1363931689" class="r"></path><path d="M 435 532 m -1, 0 a 1,1 0 1,0 2,0 a 1,1 0 1,0 -2,0 M 435 532 m -0.5, 0 a 0.5,0.5 0 1,0 1,0 a 0.5,0.5 0 1,0 -1,0  M435 532 L435 532 423 532 M 435 538 m -1, 0 a 1,1 0 1,0 2,0 a 1,1 0 1,0 -2,0 M 435 538 m -0.5, 0 a 0.5,0.5 0 1,0 1,0 a 0.5,0.5 0 1,0 -1,0  M435 538 L435 538 428 532 435 526 M 435 526 m -1, 0 a 1,1 0 1,0 2,0 a 1,1 0 1,0 -2,0 M 435 526 m -0.5, 0 a 0.5,0.5 0 1,0 1,0 a 0.5,0.5 0 1,0 -1,0  M423 532 Q 399.6 532, 376.19 582 T 329.38 632 M 317.38 632 m -1, 0 a 1,1 0 1,0 2,0 a 1,1 0 1,0 -2,0 M 317.38 632 m -0.5, 0 a 0.5,0.5 0 1,0 1,0 a 0.5,0.5 0 1,0 -1,0  M317.38 632 L317.38 632 329.38 632 M323.38 638 L323.38 638 323.38 626" id="h2289191990" class="r"></path><path d="M 657.13 557 m -1, 0 a 1,1 0 1,0 2,0 a 1,1 0 1,0 -2,0 M 657.13 557 m -0.5, 0 a 0.5,0.5 0 1,0 1,0 a 0.5,0.5 0 1,0 -1,0  M657.13 557 L657.13 557 669.13 557 M 657.13 563 m -1, 0 a 1,1 0 1,0 2,0 a 1,1 0 1,0 -2,0 M 657.13 563 m -0.5, 0 a 0.5,0.5 0 1,0 1,0 a 0.5,0.5 0 1,0 -1,0  M657.13 563 L657.13 563 664.13 557 657.13 551 M 657.13 551 m -1, 0 a 1,1 0 1,0 2,0 a 1,1 0 1,0 -2,0 M 657.13 551 m -0.5, 0 a 0.5,0.5 0 1,0 1,0 a 0.5,0.5 0 1,0 -1,0  M669.13 557 Q 685.85 557, 702.57 594 T 736 631 M 748 631 m -1, 0 a 1,1 0 1,0 2,0 a 1,1 0 1,0 -2,0 M 748 631 m -0.5, 0 a 0.5,0.5 0 1,0 1,0 a 0.5,0.5 0 1,0 -1,0  M748 631 L748 631 736 631 M742 637 L742 637 742 625" id="h3511382426" class="r"></path></g><g class="hrs"></g><g class="ts"><svg width="140.71" height="225" x="471" y="3" id="h1677880938" class="t"><rect height="40" width="140.71" class="th"></rect><text x="13" y="25" class="tht">dim_dates</text><rect height="185" width="140.71" class="t-bg"></rect><text x="13" y="61" class="tf pk">id<tspan x="127.71000000000001" class="ty">int</tspan></text><path d="M7,14A2,2 0 0,1 5,12A2,2 0 0,1 7,10A2,2 0 0,1 9,12A2,2 0 0,1 7,14M12.65,10C11.83,7.67 9.61,6 7, 6A6, 6 0 0, 0 1, 12A6, 6 0 0, 0 7, 18C9.61, 18 11.83, 16.33 12.65, 14H17V18H21V14H23V10H12.65Z" class="i pk" transform="translate(95.03617187500001, 48) scale(0.65)"></path><text x="13" y="86" class="tf">date<tspan x="127.71000000000001" class="ty">date</tspan></text><text x="13" y="111" class="tf">year<tspan x="127.71000000000001" class="ty">smallint</tspan></text><text x="13" y="136" class="tf">quarter<tspan x="127.71000000000001" class="ty">smallint</tspan></text><text x="13" y="161" class="tf">month<tspan x="127.71000000000001" class="ty">smallint</tspan></text><text x="13" y="186" class="tf">week<tspan x="127.71000000000001" class="ty">smallint</tspan></text><text x="13" y="211" class="tf">week_day<tspan x="127.71000000000001" class="ty">smallint</tspan></text></svg><svg width="149.38" height="125" x="168" y="575" id="h3047638551" class="t"><rect height="40" width="149.38" class="th"></rect><text x="13" y="25" class="tht">dim_schedules</text><rect height="85" width="149.38" class="t-bg"></rect><text x="13" y="61" class="tf pk">id<tspan x="136.38" class="ty">int</tspan></text><path d="M7,14A2,2 0 0,1 5,12A2,2 0 0,1 7,10A2,2 0 0,1 9,12A2,2 0 0,1 7,14M12.65,10C11.83,7.67 9.61,6 7, 6A6, 6 0 0, 0 1, 12A6, 6 0 0, 0 7, 18C9.61, 18 11.83, 16.33 12.65, 14H17V18H21V14H23V10H12.65Z" class="i pk" transform="translate(103.706171875, 48) scale(0.65)"></path><text x="13" y="86" class="tf">code<tspan x="136.38" class="ty">varchar(20)</tspan></text><path d="M22,18V22H18V19H15V16H12L9.74,13.74C9.19,13.91 8.61,14 8,14A6,6 0 0,1 2,8A6,6 0 0,1 8,2A6,6 0 0,1 14,8C14,8.61 13.91, 9.19 13.74, 9.74L22, 18M7, 5A2, 2 0 0, 0 5, 7A2, 2 0 0, 0 7, 9A2, 2 0 0, 0 9, 7A2, 2 0 0, 0 7, 5Z" class="i uq" transform="translate(59.026484374999995, 75.5) scale(0.5)"></path><text x="13" y="111" class="tf">name<tspan x="136.38" class="ty">varchar(200)</tspan></text></svg><svg width="222.13" height="400" x="435" y="300" id="h1109924042" class="t"><rect height="40" width="222.13" class="th"></rect><text x="13" y="25" class="tht">fact_vacancies</text><rect height="360" width="222.13" class="t-bg"></rect><text x="13" y="61" class="tf pk">id<tspan x="209.13" class="ty">int</tspan></text><path d="M7,14A2,2 0 0,1 5,12A2,2 0 0,1 7,10A2,2 0 0,1 9,12A2,2 0 0,1 7,14M12.65,10C11.83,7.67 9.61,6 7, 6A6, 6 0 0, 0 1, 12A6, 6 0 0, 0 7, 18C9.61, 18 11.83, 16.33 12.65, 14H17V18H21V14H23V10H12.65Z" class="i pk" transform="translate(176.456171875, 48) scale(0.65)"></path><text x="13" y="86" class="tf">name<tspan x="209.13" class="ty">varchar(200)</tspan></text><text x="13" y="111" class="tf fk">created_date_id<tspan x="209.13" class="ty">int</tspan></text><path d="M814.545 581.818v-23.273H535.273v-93.09h-46.546v93.09H209.455v139.637H256V605.09h232.727v93.09h46.546v-93.09H768v93.09h46.545V581.819zM674.91 465.455H349.091V139.636h325.818v325.819zM325.82 884.364H139.635V698.182h186.182v186.182z m279.272 0H418.909V698.182h186.182v186.182z m279.273 0H698.182V698.182h186.182v186.182zM395.636 418.909h232.728V186.182H395.636v232.727zM186.182 837.82h93.09v-93.092h-93.09v93.091z m279.273 0h93.09v-93.092h-93.09v93.091z m279.272 0h93.091v-93.092h-93.09v93.091z" class="i ix" transform="translate(181.456171875, 100) scale(0.014)"></path><text x="13" y="136" class="tf fk">speciality_id<tspan x="209.13" class="ty">int</tspan></text><path d="M814.545 581.818v-23.273H535.273v-93.09h-46.546v93.09H209.455v139.637H256V605.09h232.727v93.09h46.546v-93.09H768v93.09h46.545V581.819zM674.91 465.455H349.091V139.636h325.818v325.819zM325.82 884.364H139.635V698.182h186.182v186.182z m279.272 0H418.909V698.182h186.182v186.182z m279.273 0H698.182V698.182h186.182v186.182zM395.636 418.909h232.728V186.182H395.636v232.727zM186.182 837.82h93.09v-93.092h-93.09v93.091z m279.273 0h93.09v-93.092h-93.09v93.091z m279.272 0h93.091v-93.092h-93.09v93.091z" class="i ix" transform="translate(181.456171875, 125) scale(0.014)"></path><text x="13" y="161" class="tf fk">grade_id<tspan x="209.13" class="ty">int</tspan></text><path d="M814.545 581.818v-23.273H535.273v-93.09h-46.546v93.09H209.455v139.637H256V605.09h232.727v93.09h46.546v-93.09H768v93.09h46.545V581.819zM674.91 465.455H349.091V139.636h325.818v325.819zM325.82 884.364H139.635V698.182h186.182v186.182z m279.272 0H418.909V698.182h186.182v186.182z m279.273 0H698.182V698.182h186.182v186.182zM395.636 418.909h232.728V186.182H395.636v232.727zM186.182 837.82h93.09v-93.092h-93.09v93.091z m279.273 0h93.09v-93.092h-93.09v93.091z m279.272 0h93.091v-93.092h-93.09v93.091z" class="i ix" transform="translate(181.456171875, 150) scale(0.014)"></path><text x="13" y="186" class="tf fk">area_id<tspan x="209.13" class="ty">int</tspan></text><path d="M814.545 581.818v-23.273H535.273v-93.09h-46.546v93.09H209.455v139.637H256V605.09h232.727v93.09h46.546v-93.09H768v93.09h46.545V581.819zM674.91 465.455H349.091V139.636h325.818v325.819zM325.82 884.364H139.635V698.182h186.182v186.182z m279.272 0H418.909V698.182h186.182v186.182z m279.273 0H698.182V698.182h186.182v186.182zM395.636 418.909h232.728V186.182H395.636v232.727zM186.182 837.82h93.09v-93.092h-93.09v93.091z m279.273 0h93.09v-93.092h-93.09v93.091z m279.272 0h93.091v-93.092h-93.09v93.091z" class="i ix" transform="translate(181.456171875, 175) scale(0.014)"></path><text x="13" y="211" class="tf fk">employer_id<tspan x="209.13" class="ty">int</tspan></text><path d="M814.545 581.818v-23.273H535.273v-93.09h-46.546v93.09H209.455v139.637H256V605.09h232.727v93.09h46.546v-93.09H768v93.09h46.545V581.819zM674.91 465.455H349.091V139.636h325.818v325.819zM325.82 884.364H139.635V698.182h186.182v186.182z m279.272 0H418.909V698.182h186.182v186.182z m279.273 0H698.182V698.182h186.182v186.182zM395.636 418.909h232.728V186.182H395.636v232.727zM186.182 837.82h93.09v-93.092h-93.09v93.091z m279.273 0h93.09v-93.092h-93.09v93.091z m279.272 0h93.091v-93.092h-93.09v93.091z" class="i ix" transform="translate(181.456171875, 200) scale(0.014)"></path><text x="13" y="236" class="tf fk">schedule_id<tspan x="209.13" class="ty">int</tspan></text><path d="M814.545 581.818v-23.273H535.273v-93.09h-46.546v93.09H209.455v139.637H256V605.09h232.727v93.09h46.546v-93.09H768v93.09h46.545V581.819zM674.91 465.455H349.091V139.636h325.818v325.819zM325.82 884.364H139.635V698.182h186.182v186.182z m279.272 0H418.909V698.182h186.182v186.182z m279.273 0H698.182V698.182h186.182v186.182zM395.636 418.909h232.728V186.182H395.636v232.727zM186.182 837.82h93.09v-93.092h-93.09v93.091z m279.273 0h93.09v-93.092h-93.09v93.091z m279.272 0h93.091v-93.092h-93.09v93.091z" class="i ix" transform="translate(181.456171875, 225) scale(0.014)"></path><text x="13" y="261" class="tf fk">type_id<tspan x="209.13" class="ty">int</tspan></text><path d="M814.545 581.818v-23.273H535.273v-93.09h-46.546v93.09H209.455v139.637H256V605.09h232.727v93.09h46.546v-93.09H768v93.09h46.545V581.819zM674.91 465.455H349.091V139.636h325.818v325.819zM325.82 884.364H139.635V698.182h186.182v186.182z m279.272 0H418.909V698.182h186.182v186.182z m279.273 0H698.182V698.182h186.182v186.182zM395.636 418.909h232.728V186.182H395.636v232.727zM186.182 837.82h93.09v-93.092h-93.09v93.091z m279.273 0h93.09v-93.092h-93.09v93.091z m279.272 0h93.091v-93.092h-93.09v93.091z" class="i ix" transform="translate(181.456171875, 250) scale(0.014)"></path><text x="13" y="286" class="tf">premium<tspan x="209.13" class="ty">boolean</tspan></text><text x="13" y="311" class="tf">has_test<tspan x="209.13" class="ty">boolean</tspan></text><text x="13" y="336" class="tf">response_letter_required<tspan x="209.13" class="ty">boolean</tspan></text><text x="13" y="361" class="tf">salary_from<tspan x="209.13" class="ty">int?</tspan></text><text x="13" y="386" class="tf">salary_to<tspan x="209.13" class="ty">int?</tspan></text></svg><svg width="149.38" height="125" x="748" y="574" id="h2433784910" class="t"><rect height="40" width="149.38" class="th"></rect><text x="13" y="25" class="tht">dim_types</text><rect height="85" width="149.38" class="t-bg"></rect><text x="13" y="61" class="tf pk">id<tspan x="136.38" class="ty">int</tspan></text><path d="M7,14A2,2 0 0,1 5,12A2,2 0 0,1 7,10A2,2 0 0,1 9,12A2,2 0 0,1 7,14M12.65,10C11.83,7.67 9.61,6 7, 6A6, 6 0 0, 0 1, 12A6, 6 0 0, 0 7, 18C9.61, 18 11.83, 16.33 12.65, 14H17V18H21V14H23V10H12.65Z" class="i pk" transform="translate(103.706171875, 48) scale(0.65)"></path><text x="13" y="86" class="tf">code<tspan x="136.38" class="ty">varchar(20)</tspan></text><path d="M22,18V22H18V19H15V16H12L9.74,13.74C9.19,13.91 8.61,14 8,14A6,6 0 0,1 2,8A6,6 0 0,1 8,2A6,6 0 0,1 14,8C14,8.61 13.91, 9.19 13.74, 9.74L22, 18M7, 5A2, 2 0 0, 0 5, 7A2, 2 0 0, 0 7, 9A2, 2 0 0, 0 9, 7A2, 2 0 0, 0 7, 5Z" class="i uq" transform="translate(59.026484374999995, 75.5) scale(0.5)"></path><text x="13" y="111" class="tf">name<tspan x="136.38" class="ty">varchar(200)</tspan></text></svg><svg width="149.38" height="125" x="742" y="143" id="h985841542" class="t"><rect height="40" width="149.38" class="th"></rect><text x="13" y="25" class="tht">dim_areas</text><rect height="85" width="149.38" class="t-bg"></rect><text x="13" y="61" class="tf pk">id<tspan x="136.38" class="ty">int</tspan></text><path d="M7,14A2,2 0 0,1 5,12A2,2 0 0,1 7,10A2,2 0 0,1 9,12A2,2 0 0,1 7,14M12.65,10C11.83,7.67 9.61,6 7, 6A6, 6 0 0, 0 1, 12A6, 6 0 0, 0 7, 18C9.61, 18 11.83, 16.33 12.65, 14H17V18H21V14H23V10H12.65Z" class="i pk" transform="translate(103.706171875, 48) scale(0.65)"></path><text x="13" y="86" class="tf">code<tspan x="136.38" class="ty">varchar(20)</tspan></text><path d="M22,18V22H18V19H15V16H12L9.74,13.74C9.19,13.91 8.61,14 8,14A6,6 0 0,1 2,8A6,6 0 0,1 8,2A6,6 0 0,1 14,8C14,8.61 13.91, 9.19 13.74, 9.74L22, 18M7, 5A2, 2 0 0, 0 5, 7A2, 2 0 0, 0 7, 9A2, 2 0 0, 0 9, 7A2, 2 0 0, 0 7, 5Z" class="i uq" transform="translate(59.026484374999995, 75.5) scale(0.5)"></path><text x="13" y="111" class="tf">name<tspan x="136.38" class="ty">varchar(200)</tspan></text></svg><svg width="149.38" height="150" x="743" y="338" id="h819904002" class="t"><rect height="40" width="149.38" class="th"></rect><text x="13" y="25" class="tht">dim_employers</text><rect height="110" width="149.38" class="t-bg"></rect><text x="13" y="61" class="tf pk">id<tspan x="136.38" class="ty">int</tspan></text><path d="M7,14A2,2 0 0,1 5,12A2,2 0 0,1 7,10A2,2 0 0,1 9,12A2,2 0 0,1 7,14M12.65,10C11.83,7.67 9.61,6 7, 6A6, 6 0 0, 0 1, 12A6, 6 0 0, 0 7, 18C9.61, 18 11.83, 16.33 12.65, 14H17V18H21V14H23V10H12.65Z" class="i pk" transform="translate(103.706171875, 48) scale(0.65)"></path><text x="13" y="86" class="tf">code<tspan x="136.38" class="ty">varchar(20)</tspan></text><path d="M22,18V22H18V19H15V16H12L9.74,13.74C9.19,13.91 8.61,14 8,14A6,6 0 0,1 2,8A6,6 0 0,1 8,2A6,6 0 0,1 14,8C14,8.61 13.91, 9.19 13.74, 9.74L22, 18M7, 5A2, 2 0 0, 0 5, 7A2, 2 0 0, 0 7, 9A2, 2 0 0, 0 9, 7A2, 2 0 0, 0 7, 5Z" class="i uq" transform="translate(59.026484374999995, 75.5) scale(0.5)"></path><text x="13" y="111" class="tf">name<tspan x="136.38" class="ty">varchar(200)</tspan></text><text x="13" y="136" class="tf">trusted<tspan x="136.38" class="ty">boolean</tspan></text></svg><svg width="144.04" height="125" x="163" y="153" id="h354369905" class="t"><rect height="40" width="144.04" class="th"></rect><text x="13" y="25" class="tht">dim_specialities</text><rect height="85" width="144.04" class="t-bg"></rect><text x="13" y="61" class="tf pk">id<tspan x="131.04" class="ty">int</tspan></text><path d="M7,14A2,2 0 0,1 5,12A2,2 0 0,1 7,10A2,2 0 0,1 9,12A2,2 0 0,1 7,14M12.65,10C11.83,7.67 9.61,6 7, 6A6, 6 0 0, 0 1, 12A6, 6 0 0, 0 7, 18C9.61, 18 11.83, 16.33 12.65, 14H17V18H21V14H23V10H12.65Z" class="i pk" transform="translate(98.36617187499999, 48) scale(0.65)"></path><text x="13" y="86" class="tf">name<tspan x="131.04" class="ty">varchar(200)</tspan></text><text x="13" y="111" class="tf">aliases<tspan x="131.04" class="ty">text</tspan></text></svg><svg width="144.04" height="125" x="161" y="341" id="h3027054968" class="t"><rect height="40" width="144.04" class="th"></rect><text x="13" y="25" class="tht">dim_grades</text><rect height="85" width="144.04" class="t-bg"></rect><text x="13" y="61" class="tf pk">id<tspan x="131.04" class="ty">int</tspan></text><path d="M7,14A2,2 0 0,1 5,12A2,2 0 0,1 7,10A2,2 0 0,1 9,12A2,2 0 0,1 7,14M12.65,10C11.83,7.67 9.61,6 7, 6A6, 6 0 0, 0 1, 12A6, 6 0 0, 0 7, 18C9.61, 18 11.83, 16.33 12.65, 14H17V18H21V14H23V10H12.65Z" class="i pk" transform="translate(98.36617187499999, 48) scale(0.65)"></path><text x="13" y="86" class="tf">name<tspan x="131.04" class="ty">varchar(200)</tspan></text><text x="13" y="111" class="tf">aliases<tspan x="131.04" class="ty">text</tspan></text></svg></g></g><text class="qdbd-link" x="10" y="20">www.quickdatabasediagrams.com</text></svg>